<svg width="37" height="37" viewBox="0 0 37 37" fill="none" xmlns="http://www.w3.org/2000/svg">
<path d="M31.4739 19.834C31.7589 19.549 31.9189 19.1624 31.9189 18.7594C31.9189 18.3563 31.7589 17.9698 31.4739 17.6847L22.8753 9.08611C22.7351 8.94093 22.5673 8.82514 22.3819 8.74547C22.1964 8.66581 21.997 8.62388 21.7952 8.62213C21.5933 8.62037 21.3932 8.65883 21.2064 8.73526C21.0196 8.81169 20.8499 8.92455 20.7072 9.06727C20.5644 9.20999 20.4516 9.3797 20.3751 9.5665C20.2987 9.7533 20.2603 9.95345 20.262 10.1553C20.2638 10.3571 20.3057 10.5566 20.3854 10.742C20.465 10.9274 20.5808 11.0952 20.726 11.2354L26.73 17.2394H6.60063C6.1975 17.2394 5.81088 17.3995 5.52583 17.6846C5.24077 17.9696 5.08063 18.3563 5.08063 18.7594C5.08063 19.1625 5.24077 19.5491 5.52583 19.8342C5.81088 20.1192 6.1975 20.2794 6.60063 20.2794H26.73L20.726 26.2834C20.4491 26.5701 20.2959 26.954 20.2994 27.3526C20.3028 27.7511 20.4627 28.1323 20.7445 28.4142C21.0263 28.696 21.4076 28.8558 21.8061 28.8593C22.2046 28.8628 22.5886 28.7095 22.8753 28.4327L31.4739 19.834Z" fill="#4250AB"/>
</svg>
