<svg width="38" height="38" viewBox="0 0 38 38" fill="none" xmlns="http://www.w3.org/2000/svg">
<path d="M32.243 20.1196C32.5398 19.8226 32.7065 19.42 32.7065 19.0001C32.7065 18.5803 32.5398 18.1776 32.243 17.8807L23.286 8.9238C23.14 8.77258 22.9653 8.65196 22.7721 8.56898C22.5789 8.48599 22.3712 8.44232 22.1609 8.44049C21.9507 8.43866 21.7422 8.47872 21.5476 8.55834C21.353 8.63795 21.1763 8.75551 21.0276 8.90418C20.8789 9.05284 20.7614 9.22962 20.6817 9.42421C20.6021 9.61879 20.5621 9.82729 20.5639 10.0375C20.5657 10.2478 20.6094 10.4555 20.6924 10.6487C20.7754 10.8419 20.896 11.0166 21.0472 11.1626L27.3014 17.4168H6.3333C5.91337 17.4168 5.51064 17.5836 5.21371 17.8806C4.91678 18.1775 4.74997 18.5802 4.74997 19.0001C4.74997 19.4201 4.91678 19.8228 5.21371 20.1197C5.51064 20.4167 5.91337 20.5835 6.3333 20.5835H27.3014L21.0472 26.8376C20.7588 27.1363 20.5992 27.5362 20.6028 27.9514C20.6064 28.3665 20.7729 28.7636 21.0665 29.0572C21.3601 29.3507 21.7572 29.5173 22.1723 29.5209C22.5875 29.5245 22.9874 29.3649 23.286 29.0765L32.243 20.1196Z" fill="#F8F8F8"/>
</svg>
